HIERARCHY
ROOT Model_Hips
{
	OFFSET 0.000000 96.915077 0.000000
	CHANNELS 6 Xposition Yposition Zposition Xrotation Yrotation Zrotation
	JOINT Model_Spine
	{
		OFFSET 0.000000 11.137703 -1.289900
		CHANNELS 3 Xrotation Yrotation Zrotation
		JOINT Model_Spine1
		{
			OFFSET 0.000000 12.993942 -1.504922
			CHANNELS 3 Xrotation Yrotation Zrotation
			JOINT Model_Spine2
			{
				OFFSET 0.000000 14.850220 -1.719911
				CHANNELS 3 Xrotation Yrotation Zrotation
				JOINT Model_Neck
				{
					OFFSET 0.000000 16.706543 -1.934903
					CHANNELS 3 Xrotation Yrotation Zrotation
					JOINT Model_Head
					{
						OFFSET 0.000000 10.471298 2.002100
						CHANNELS 3 Xrotation Yrotation Zrotation
						JOINT Model_HeadTop_End
						{
							OFFSET 0.000000 20.842606 3.985100
							CHANNELS 3 Xrotation Yrotation Zrotation
							End Site
							{
								OFFSET 0.000000 21.220154 0.000000
							}
						}
					}
				}
				JOINT Model_LeftShoulder
				{
					OFFSET 7.008500 14.768600 -1.919946
					CHANNELS 3 Xrotation Yrotation Zrotation
					JOINT Model_LeftArm
					{
						OFFSET 14.126271 -3.718048 0.029937
						CHANNELS 3 Xrotation Yrotation Zrotation
						JOINT Model_LeftForeArm
						{
							OFFSET 28.282801 0.000000 0.000000
							CHANNELS 3 Xrotation Yrotation Zrotation
							JOINT Model_LeftHand
							{
								OFFSET 26.204689 0.000000 0.000000
								CHANNELS 3 Xrotation Yrotation Zrotation
								End Site
								{
									OFFSET 26.204704 0.000000 0.000000
								}
							}
						}
					}
				}
				JOINT Model_RightShoulder
				{
					OFFSET -7.008500 14.768555 -1.949840
					CHANNELS 3 Xrotation Yrotation Zrotation
					JOINT Model_RightArm
					{
						OFFSET -14.126281 -3.718018 -0.029932
						CHANNELS 3 Xrotation Yrotation Zrotation
						JOINT Model_RightForeArm
						{
							OFFSET -28.283798 0.000000 -0.000001
							CHANNELS 3 Xrotation Yrotation Zrotation
							JOINT Model_RightHand
							{
								OFFSET -26.204193 0.000000 -0.000001
								CHANNELS 3 Xrotation Yrotation Zrotation
								End Site
								{
									OFFSET -26.204208 0.000000 -0.000001
								}
							}
						}
					}
				}
			}
		}
	}
	JOINT Model_LeftUpLeg
	{
		OFFSET 8.327700 -6.193199 -0.402800
		CHANNELS 3 Xrotation Yrotation Zrotation
		JOINT Model_LeftLeg
		{
			OFFSET 0.735802 -42.108742 -0.610721
			CHANNELS 3 Xrotation Yrotation Zrotation
			JOINT Model_LeftFoot
			{
				OFFSET -0.735806 -36.833748 -0.172876
				CHANNELS 3 Xrotation Yrotation Zrotation
				JOINT Model_LeftToeBase
				{
					OFFSET -0.565857 -11.977769 16.297714
					CHANNELS 3 Xrotation Yrotation Zrotation
					JOINT Model_LeftToe_End
					{
						OFFSET -0.111712 -0.312793 7.857784
						CHANNELS 3 Xrotation Yrotation Zrotation
						End Site
						{
							OFFSET -0.111712 -0.312793 7.857784
						}
					}
				}
			}
		}
	}
	JOINT Model_RightUpLeg
	{
		OFFSET -8.327700 -6.193199 -0.516500
		CHANNELS 3 Xrotation Yrotation Zrotation
		JOINT Model_RightLeg
		{
			OFFSET -0.735785 -42.108738 -0.434061
			CHANNELS 3 Xrotation Yrotation Zrotation
			JOINT Model_RightFoot
			{
				OFFSET 0.735776 -36.833748 -0.021630
				CHANNELS 3 Xrotation Yrotation Zrotation
				JOINT Model_RightToeBase
				{
					OFFSET 0.565817 -11.977745 15.903093
					CHANNELS 3 Xrotation Yrotation Zrotation
					JOINT Model_RightToe_End
					{
						OFFSET 0.111702 -0.312791 7.811342
						CHANNELS 3 Xrotation Yrotation Zrotation
						End Site
						{
							OFFSET 0.111702 -0.312791 7.811342
						}
					}
				}
			}
		}
	}
}
MOTION
Frames: 5
Frame Time: 0.016667
3.900147 96.613571 88.757881 -1.770302 5.780807 1.904015 5.907109 -2.836148 -0.074450 0.450115 -0.778382 0.038075 0.450697 -0.777883 0.042102 -1.227024 -0.128077 -0.257358 -1.227561 -0.130715 -0.253338 0.000000 0.000000 0.000000 0.391422 -5.482230 -19.957063 -5.515475 -16.329722 -59.853480 -0.000008 -14.647033 0.000010 0.000000 0.000001 0.000001 0.828191 -0.493706 16.628539 6.571216 2.080106 64.251535 -0.000003 10.443397 -0.000001 0.000000 -0.000000 -0.000000 -0.536114 5.210825 -6.059038 14.073719 -5.026571 0.017614 -9.368646 -0.712560 5.546439 -2.820929 0.000001 0.000001 0.000001 0.000000 -0.000000 -24.185423 -5.776992 -4.872874 43.667414 -9.915748 -2.461789 -3.877230 -0.544030 4.880783 -5.314472 -0.004573 0.496574 0.000000 -0.000000 0.000000 
3.855546 96.479630 90.700081 -1.525987 6.274955 2.030827 5.857051 -3.312001 -0.135961 0.465913 -0.906639 0.017474 0.467050 -0.905616 0.022340 -1.268908 -0.098224 -0.266952 -1.269544 -0.100872 -0.262734 -0.000000 0.000000 0.000000 0.364589 -5.811890 -19.868930 -6.856468 -18.115776 -58.677513 -0.000003 -15.862979 0.000017 -0.000003 -0.000000 0.000001 0.835302 -0.610399 16.621291 7.590688 1.216134 64.581932 0.000003 10.355860 -0.000006 0.000000 -0.000000 -0.000001 0.554412 5.379375 -5.928528 14.153922 -5.767961 -0.061107 -10.593447 -0.755392 5.527472 -3.001530 0.000002 -0.000001 0.000000 -0.000000 -0.000000 -25.530142 -5.889314 -5.335778 39.185444 -9.902951 -2.389145 -3.886076 -1.213268 5.436192 -4.624832 -0.000003 0.000002 0.000001 -0.000001 0.000000 
3.810958 96.272530 92.626610 -1.208317 6.793475 2.205832 5.726298 -3.792875 -0.224638 0.468940 -1.035947 -0.010057 0.470861 -1.034358 -0.004425 -1.299513 -0.067354 -0.283147 -1.300343 -0.070023 -0.278749 0.000000 -0.000000 0.000000 0.334007 -6.179703 -19.809847 -8.101690 -19.745109 -57.444486 -0.000011 -17.050037 0.000000 -0.000002 0.000002 -0.000001 0.841652 -0.716990 16.611245 8.549686 0.396409 64.889256 0.000003 10.230381 -0.000013 0.000000 0.000000 0.000000 1.472217 5.465285 -5.863076 14.421376 -6.463398 -0.087716 -11.937222 -0.778337 5.491923 -3.140038 -0.000002 -0.000000 0.000000 -0.000001 -0.000000 -26.620935 -6.056040 -5.909958 34.055870 -9.893694 -2.162751 -3.520827 -1.849742 5.739798 -4.622611 -0.000009 0.000002 -0.000000 -0.000001 0.000000 
3.768296 96.006554 94.545677 -0.800805 7.292666 2.419239 5.496614 -4.219629 -0.344622 0.450504 -1.149430 -0.034866 0.453231 -1.147489 -0.028767 -1.317070 -0.039786 -0.310620 -1.318108 -0.042578 -0.306078 0.000000 -0.000000 0.000000 0.298125 -6.585542 -19.811660 -9.237365 -21.193484 -56.200108 -0.000004 -18.250166 -0.000002 -0.000002 0.000000 0.000000 0.846891 -0.846298 16.537729 9.471666 -0.415283 65.198008 0.000002 10.095340 -0.000003 -0.000000 -0.000001 0.000000 2.267826 5.494251 -5.851409 14.747111 -7.069869 -0.083935 -13.325113 -0.807685 5.435739 -3.260797 -0.000003 -0.000001 0.000000 -0.000000 -0.000000 -27.465336 -6.207675 -6.486798 28.328233 -9.887652 -1.946655 -2.978354 -2.640364 5.915503 -4.719226 -0.000004 0.000000 0.000001 -0.000001 0.000000 
3.727480 95.641838 96.461761 -0.339020 7.701824 2.667299 5.217447 -4.536326 -0.502508 0.413832 -1.231131 -0.055208 0.417216 -1.229113 -0.049058 -1.334270 -0.019722 -0.347155 -1.335573 -0.022770 -0.342481 -0.000000 -0.000000 -0.000000 0.260142 -6.985283 -19.872917 -10.292072 -22.578631 -54.989208 0.000007 -19.407612 -0.000012 -0.000003 0.000000 0.000000 0.853539 -1.036870 16.410132 10.341936 -1.216089 65.474419 -0.000002 9.956554 0.000016 0.000001 -0.000000 0.000000 2.745944 5.514863 -5.872770 15.652944 -7.524573 -0.056151 -15.018447 -0.858113 5.388653 -3.404313 0.000004 -0.000000 0.000000 -0.000000 -0.000000 -28.225922 -6.225538 -7.013586 22.519663 -9.879901 -1.862395 -2.576371 -3.522864 6.333999 -4.597912 0.000010 0.000004 -0.000000 -0.000000 0.000000 
